HIERARCHY
ROOT hip
{
	OFFSET	0.00  0.00  0.00 
	CHANNELS 6 Xposition Yposition Zposition Xrotation Zrotation Yrotation
	JOINT waist
	{
		OFFSET	0.000000 2.191865 -0.079388
		CHANNELS 3 Xrotation Zrotation Yrotation
		JOINT abdomen
		{
			OFFSET	0.000000 2.770984 0.119082
			CHANNELS 3 Xrotation Zrotation Yrotation
			JOINT chest
			{
				OFFSET	0.000000 2.879627 -0.290598
				CHANNELS 3 Xrotation Zrotation Yrotation
				JOINT neck
				{
					OFFSET	0.000000 12.342733 -1.613748
					CHANNELS 3 Xrotation Zrotation Yrotation
					JOINT head
					{
						OFFSET	0.000000 4.485597 1.807195
						CHANNELS 3 Xrotation Zrotation Yrotation
						End Site
						{
							OFFSET 0.000000 7.191734 2.024398
						}
					}
				}
				JOINT lCollar
				{
					OFFSET	1.858774 10.237258 -1.915852
					CHANNELS 3 Zrotation Yrotation Xrotation
					JOINT lShldr
					{
						OFFSET	6.103279 0.000102 -0.038601
						CHANNELS 3 Zrotation Yrotation Xrotation
						JOINT lForeArm
						{
							OFFSET	10.574100 -0.365985 -0.655940
							CHANNELS 3 Zrotation Yrotation Xrotation
							JOINT lHand
							{
								OFFSET	13.213392 -0.641131 0.276866
								CHANNELS 3 Zrotation Yrotation Xrotation
								JOINT lThumb1
								{
									OFFSET	1.920964 -1.225712 1.722395
									CHANNELS 3 Zrotation Yrotation Xrotation
									JOINT lThumb2
									{
										OFFSET	0.248544 -0.143036 0.768265
										CHANNELS 3 Zrotation Yrotation Xrotation
										JOINT lThumb3
										{
											OFFSET	0.628484 -0.225174 0.508305
											CHANNELS 3 Zrotation Yrotation Xrotation
											End Site
											{
												OFFSET 0.831712 -0.207978 0.609962
											}
										}
									}
								}
								JOINT lIndex1
								{
									OFFSET	5.093442 -0.710319 1.829884
									CHANNELS 3 Zrotation Yrotation Xrotation
									JOINT lIndex2
									{
										OFFSET	0.889470 -0.051998 0.127073
										CHANNELS 3 Zrotation Yrotation Xrotation
										JOINT lIndex3
										{
											OFFSET	0.889570 -0.155981 0.127073
											CHANNELS 3 Zrotation Yrotation Xrotation
											End Site
											{
												OFFSET 0.797115 -0.294470 0.076252
											}
										}
									}
								}
								JOINT lMid1
								{
									OFFSET	5.154641 -0.519844 0.864111
									CHANNELS 3 Zrotation Yrotation Xrotation
									JOINT lMid2
									{
										OFFSET	0.928821 -0.051992 0.050831
										CHANNELS 3 Zrotation Yrotation Xrotation
										JOINT lMid3
										{
											OFFSET	0.984253 -0.311865 0.050831
											CHANNELS 3 Zrotation Yrotation Xrotation
											End Site
											{
												OFFSET 0.779717 -0.606438 -0.050831
											}
										}
									}
								}
								JOINT lRing1
								{
									OFFSET	4.924408 -0.754930 -0.235503
									CHANNELS 3 Zrotation Yrotation Xrotation
									JOINT lRing2
									{
										OFFSET	0.981624 -0.036924 -0.108278
										CHANNELS 3 Zrotation Yrotation Xrotation
										JOINT lRing3
										{
											OFFSET	0.805613 -0.205247 -0.041717
											CHANNELS 3 Zrotation Yrotation Xrotation
											End Site
											{
												OFFSET 0.667431 -0.470481 -0.035991
											}
										}
									}
								}
								JOINT lPinky1
								{
									OFFSET	4.535460 -0.816635 -1.006206
									CHANNELS 3 Zrotation Yrotation Xrotation
									JOINT lPinky2
									{
										OFFSET	0.690596 -0.064334 -0.168800
										CHANNELS 3 Zrotation Yrotation Xrotation
										JOINT lPinky3
										{
											OFFSET	0.598039 -0.111176 -0.071973
											CHANNELS 3 Zrotation Yrotation Xrotation
											End Site
											{
												OFFSET 0.422025 -0.290925 -0.035981
											}
										}
									}
								}
							}
						}
					}
				}
				JOINT rCollar
				{
					OFFSET	-1.858774 10.237258 -1.915852
					CHANNELS 3 Zrotation Yrotation Xrotation
					JOINT rShldr
					{
						OFFSET	-6.103279 0.000102 -0.038601
						CHANNELS 3 Zrotation Yrotation Xrotation
						JOINT rForeArm
						{
							OFFSET	-10.574100 -0.365985 -0.655940
							CHANNELS 3 Zrotation Yrotation Xrotation
							JOINT rHand
							{
								OFFSET	-13.213392 -0.641131 0.276866
								CHANNELS 3 Zrotation Yrotation Xrotation
								JOINT rIndex1
								{
									OFFSET	-5.093442 -0.710319 1.829884
									CHANNELS 3 Zrotation Yrotation Xrotation
									JOINT rIndex2
									{
										OFFSET	-0.889470 -0.051998 0.127073
										CHANNELS 3 Zrotation Yrotation Xrotation
										JOINT rIndex3
										{
											OFFSET	-0.889570 -0.155981 0.127073
											CHANNELS 3 Zrotation Yrotation Xrotation
											End Site
											{
												OFFSET -0.797115 -0.294470 0.076252
											}
										}
									}
								}
								JOINT rThumb1
								{
									OFFSET	-1.920964 -1.225712 1.722395
									CHANNELS 3 Zrotation Yrotation Xrotation
									JOINT rThumb2
									{
										OFFSET	-0.248544 -0.143036 0.768265
										CHANNELS 3 Zrotation Yrotation Xrotation
										JOINT rThumb3
										{
											OFFSET	-0.628484 -0.225174 0.508305
											CHANNELS 3 Zrotation Yrotation Xrotation
											End Site
											{
												OFFSET -0.831712 -0.207978 0.609962
											}
										}
									}
								}
								JOINT rMid1
								{
									OFFSET	-5.154641 -0.519844 0.864111
									CHANNELS 3 Zrotation Yrotation Xrotation
									JOINT rMid2
									{
										OFFSET	-0.928821 -0.051992 0.050831
										CHANNELS 3 Zrotation Yrotation Xrotation
										JOINT rMid3
										{
											OFFSET	-0.984253 -0.311865 0.050831
											CHANNELS 3 Zrotation Yrotation Xrotation
											End Site
											{
												OFFSET -0.779717 -0.606438 -0.050831
											}
										}
									}
								}
								JOINT rRing1
								{
									OFFSET	-4.924408 -0.754930 -0.235503
									CHANNELS 3 Zrotation Yrotation Xrotation
									JOINT rRing2
									{
										OFFSET	-0.981624 -0.036924 -0.108278
										CHANNELS 3 Zrotation Yrotation Xrotation
										JOINT rRing3
										{
											OFFSET	-0.805613 -0.205247 -0.041717
											CHANNELS 3 Zrotation Yrotation Xrotation
											End Site
											{
												OFFSET -0.667431 -0.470481 -0.035991
											}
										}
									}
								}
								JOINT rPinky1
								{
									OFFSET	-4.535460 -0.816635 -1.006206
									CHANNELS 3 Zrotation Yrotation Xrotation
									JOINT rPinky2
									{
										OFFSET	-0.690596 -0.064334 -0.168800
										CHANNELS 3 Zrotation Yrotation Xrotation
										JOINT rPinky3
										{
											OFFSET	-0.598039 -0.111176 -0.071973
											CHANNELS 3 Zrotation Yrotation Xrotation
											End Site
											{
												OFFSET -0.422025 -0.290925 -0.035981
											}
										}
									}
								}
							}
						}
					}
				}
			}
		}
	}
	JOINT lThigh
	{
		OFFSET	5.761895 -0.730553 0.000101
		CHANNELS 3 Xrotation Zrotation Yrotation
		JOINT lShin
		{
			OFFSET	-1.171020 -18.459274 1.627449
			CHANNELS 3 Xrotation Zrotation Yrotation
			JOINT lFoot
			{
				OFFSET	-0.883715 -16.872776 -3.357785
				CHANNELS 3 Xrotation Zrotation Yrotation
				JOINT lToe
				{
					OFFSET	1.287613 -2.778491 2.836049
					CHANNELS 3 Xrotation Yrotation Zrotation
					End Site
					{
						OFFSET 1.362641 -0.436631 3.828194
					}
				}
			}
		}
	}
	JOINT rThigh
	{
		OFFSET	-5.761895 -0.730553 0.000101
		CHANNELS 3 Xrotation Zrotation Yrotation
		JOINT rShin
		{
			OFFSET	1.171020 -18.459274 1.627449
			CHANNELS 3 Xrotation Zrotation Yrotation
			JOINT rFoot
			{
				OFFSET	0.883715 -16.872776 -3.357785
				CHANNELS 3 Xrotation Zrotation Yrotation
				JOINT rToe
				{
					OFFSET	-1.287613 -2.778491 2.836049
					CHANNELS 3 Xrotation Yrotation Zrotation
					End Site
					{
						OFFSET -1.362641 -0.436631 3.828194
					}
				}
			}
		}
	}
}
MOTION
Frames:     4
Frame Time: 0.033333
-63.731827 40.279804 -46.605206 7.958801 1.475776 23.875448 -10.930852 -2.887978 0.123574 -4.208981 0.048003 0.008946 20.334497 -3.528593 -3.782418 1.911341 0.098415 7.524966 -2.044311 -3.544367 7.826404 -0.240942 -1.815610 2.645741 -86.337776 15.596781 -14.181269 -9.620528 -69.705330 36.122528 1.570877 -0.098794 -2.321222 9.123675 23.637812 23.772947 0.562414 -19.223061 -6.296561 -1.722496 8.159240 3.650311 -7.287927 -8.622145 0.515583 5.356514 -2.322501 -1.179757 5.454440 -3.349851 -1.768368 -2.826630 -3.276583 -0.038486 7.395798 2.680923 0.454031 16.766254 -6.929887 -4.318933 -5.373537 1.763939 -0.492163 11.537922 5.778810 2.062556 23.072035 -1.937959 -0.089413 -9.034186 -1.897960 -2.593621 5.295333 13.209479 3.076221 27.796717 -5.026704 -1.023802 5.382757 8.586031 2.928518 69.789253 -0.235309 2.884650 3.092241 25.255011 51.619762 -4.130917 12.549905 -3.982211 5.011874 9.358440 0.156076 -5.873331 2.463673 -1.274047 -5.752883 4.232304 -2.118812 -8.502172 -24.022388 15.651443 0.878684 19.590511 -5.427890 2.426864 -8.144236 4.242320 2.758232 3.315611 -0.043802 -6.960421 -1.333707 0.051382 -17.375656 7.500960 -4.732008 8.096693 -1.158600 -0.740980 -11.013455 -5.606643 1.991919 -23.426113 1.535917 0.217737 12.113275 3.906555 -3.661909 -4.023746 -13.080737 2.897433 -0.000925 -0.005734 -0.008692 -22.939722 -1.792942 8.357476 18.105518 5.569454 3.049856 8.212363 4.847731 31.468916 3.805872 -23.896353 -5.075202 -15.465041 -0.232165 -7.507932 6.479037 -7.064040 11.247955 0.295637 2.604868 30.211302 9.024657 -37.371014 -1.000492 
-63.658840 40.270607 -46.540897 8.106809 1.381685 23.659262 -10.803879 -2.878221 0.123157 -4.277343 0.000000 0.000000 20.637526 -3.374299 -3.659846 1.707377 0.417729 7.218744 -3.768749 -3.241889 7.710950 -0.084595 -1.864418 2.627185 -86.087051 15.608882 -13.571014 -10.101855 -69.948120 35.739216 1.512602 0.085113 -2.295857 -0.018104 -0.003944 -0.010280 -0.015681 -0.006574 -0.010607 -0.015424 -0.007546 -0.010088 -7.228930 -8.642445 0.506226 5.375966 -2.322010 -1.182449 5.474375 -3.376867 -1.780189 -2.846202 -3.286314 -0.037961 7.385327 2.634236 0.439770 16.796869 -6.946171 -4.329628 -5.480381 1.714182 -0.501966 11.527841 5.769507 2.059682 23.081488 -1.922281 -0.077831 -9.150899 -1.987152 -2.637400 5.255060 13.200721 3.069981 27.834072 -4.996557 -0.999677 5.421881 8.615352 2.947821 69.758713 0.086067 3.129457 3.142147 26.274069 51.735619 -4.234051 12.365153 -3.962148 5.011874 9.358440 0.156076 -5.873331 2.463673 -1.274047 -5.762673 4.232060 -2.119663 -0.001427 -0.010679 0.002670 -0.003851 -0.011809 -0.004022 -0.004104 -0.011405 -0.005351 2.758232 3.315611 -0.043802 -6.960421 -1.333707 0.051382 -17.375656 7.500960 -4.732008 8.106436 -1.158473 -0.741866 -11.013455 -5.606643 1.991919 -23.426113 1.535917 0.217737 12.121799 3.916488 -3.665679 -4.023746 -13.080737 2.897433 -0.000925 -0.005734 -0.008692 -23.797689 -1.681964 8.391510 19.510471 5.685040 3.128576 9.200115 4.696349 31.284914 3.927786 -23.452616 -5.036417 -15.628867 -0.225129 -7.547820 6.611365 -7.148221 11.282088 0.208001 2.519920 30.002234 8.732782 -36.922756 -1.054119 
-63.574322 40.247017 -46.454437 8.273676 1.208029 23.529390 -10.657394 -2.878221 0.123157 -4.355464 -0.057604 -0.010735 20.881641 -3.154410 -3.509856 1.454533 0.640781 7.171611 -5.314324 -3.022350 7.771233 0.042521 -1.903471 2.598681 -85.856903 15.689150 -12.977375 -10.604277 -70.327255 35.324314 1.395938 0.288167 -2.265436 -0.018104 -0.003944 -0.010280 -0.015681 -0.006574 -0.010607 -0.015424 -0.007546 -0.010088 -7.160050 -8.662868 0.495495 5.395411 -2.321519 -1.185141 5.484673 -3.413285 -1.794526 -2.865774 -3.296044 -0.037437 7.374727 2.578239 0.422565 16.817781 -6.962145 -4.341928 -5.606796 1.673998 -0.513549 11.507958 5.760363 2.056342 23.090946 -1.906603 -0.066251 -9.276270 -2.086236 -2.685333 5.204824 13.192169 3.060394 27.881489 -4.974961 -0.980580 5.460890 8.634912 2.947588 69.693153 0.260138 3.432908 3.161616 27.141781 52.045231 -4.409189 12.286527 -3.960376 5.011874 9.358440 0.156076 -5.883057 2.463416 -1.275389 -5.762673 4.232060 -2.119663 -0.001427 -0.010679 0.002670 -0.003851 -0.011809 -0.004022 -0.004104 -0.011405 -0.005351 2.768014 3.315601 -0.043269 -6.960335 -1.324396 0.048437 -17.375656 7.500960 -4.732008 8.116179 -1.158347 -0.742752 -11.003655 -5.606797 1.991450 -23.426113 1.535917 0.217737 12.140446 3.917119 -3.670266 -4.023746 -13.080737 2.897433 -0.000925 -0.005734 -0.008692 -24.876656 -1.563186 8.341459 21.262575 5.901686 3.062513 10.481290 4.637663 30.906277 4.062874 -22.960676 -4.995647 -15.871551 -0.170734 -7.592365 6.856281 -7.160753 11.137525 0.089137 2.500021 29.748932 8.419238 -36.426136 -1.108432 
-63.458706 40.211246 -46.310776 8.459148 0.973686 23.525478 -10.510910 -2.878222 0.123157 -4.443338 -0.115208 -0.021470 21.075741 -2.889436 -3.413390 1.195201 0.816647 7.217017 -6.606271 -2.972571 7.949338 0.149980 -1.903458 2.589574 -85.789963 15.845223 -12.598463 -11.130221 -70.773621 34.868916 1.279426 0.500924 -2.233736 -0.018104 -0.003944 -0.010280 -0.015681 -0.006574 -0.010607 -0.015424 -0.007546 -0.010088 -7.091162 -8.683280 0.484765 5.414942 -2.330649 -1.189501 5.504754 -3.449463 -1.809718 -2.885346 -3.305774 -0.036913 7.364140 2.522240 0.405358 16.849163 -6.986108 -4.358612 -5.723356 1.624114 -0.524238 11.488078 5.751216 2.053001 23.100403 -1.890925 -0.054670 -9.410894 -2.185590 -2.735243 5.164134 13.173810 3.052382 27.918867 -4.944815 -0.955616 5.509710 8.664244 2.957064 69.602142 0.296840 3.794979 3.109247 27.747643 52.434586 -4.615793 12.275503 -3.968265 5.011874 9.358440 0.156076 -5.883057 2.463416 -1.275389 -5.762856 4.241223 -2.123034 -0.001427 -0.010679 0.002670 -0.003851 -0.011809 -0.004022 -0.004104 -0.011405 -0.005351 2.768014 3.315601 -0.043269 -6.960335 -1.324396 0.048437 -17.385353 7.501275 -4.731586 8.125796 -1.148456 -0.743636 -11.003655 -5.606797 1.991450 -23.426008 1.527931 0.223356 12.148970 3.927055 -3.674035 -4.013783 -13.080920 2.896310 -0.000925 -0.005734 -0.008692 -26.038208 -1.469597 8.236831 23.429640 6.191432 2.842819 12.023022 4.671657 30.461744 4.198814 -22.459122 -4.958041 -16.153986 -0.078081 -7.639110 7.249274 -7.212807 10.809093 -0.021013 2.429089 29.469877 8.095869 -35.929321 -1.165747 
